<svg xmlns="http://www.w3.org/2000/svg" width="176.15713500976562" height="244.2482147216797" viewBox="-7.622291564941406 -19.082061767578125 176.15713500976562 244.2482147216797"><title>Neo4j Graph Visualization</title><desc>Created using Neo4j (http://www.neo4j.com/)</desc><g class="layer relationships"><g class="relationship" transform="translate(139.53482949519253 9.917939381034454) rotate(528.5854465625245)"><path class="outline" fill="#A5ABB6" stroke="none" d="M 21.40063509461097,12.933012701892217 L 21.90063509461097,12.06698729810778 A 61.81380120318733 61.81380120318733 0 0 0 22.367071359098816,12.33358846922507 L 21.87461718633171,13.20392684464251 A 62.81380120318733 62.81380120318733 0 0 1 21.40063509461097,12.933012701892217 Z M 80.36837627904701,14.97909523968032 L 79.92960581690463,14.08049606232072 A 61.81380120318733 61.81380120318733 0 0 0 80.41135042876634,13.842670281101153 L 79.07165860289922,11.158415112212616 L 86.89789446048411,11.164098548892634 L 82.19760619658916,17.421677172952535 L 80.85791437072204,14.737422004063998 A 62.81380120318733 62.81380120318733 0 0 1 80.36837627904701,14.97909523968032"/><text text-anchor="middle" pointer-events="none" font-size="8px" fill="#000000" x="50.91730692750552" y="23.819790627917456" transform="rotate(180 50.91730692750552 20.819790627917456)" font-family="sans-serif">PublicTransp…</text></g><g class="relationship" transform="translate(32.42933466076412 31.542508302665077) rotate(455.96906032370805)"><path class="outline" fill="#A5ABB6" stroke="none" d="M 25 0.5 L 39.969238967615226 0.5 L 39.969238967615226 -0.5 L 25 -0.5 Z M 59.305176467615226 0.5 L 74.27441543523045 0.5 L 74.27441543523045 3.5 L 81.27441543523045 0 L 74.27441543523045 -3.5 L 74.27441543523045 -0.5 L 59.305176467615226 -0.5 Z"/><text text-anchor="middle" pointer-events="none" font-size="8px" fill="#000000" x="49.637207717615226" y="3" transform="rotate(180 49.637207717615226 0)" font-family="sans-serif">trek</text></g><g class="relationship" transform="translate(21.377708671022216 137.2407246503538) rotate(393.38840160662426)"><path class="outline" fill="#A5ABB6" stroke="none" d="M 25 0.5 L 40.37026154687826 0.5 L 40.37026154687826 -0.5 L 25 -0.5 Z M 59.70619904687826 0.5 L 75.07646059375652 0.5 L 75.07646059375652 3.5 L 82.07646059375652 0 L 75.07646059375652 -3.5 L 75.07646059375652 -0.5 L 59.70619904687826 -0.5 Z"/><text text-anchor="middle" pointer-events="none" font-size="8px" fill="#000000" x="50.03823029687826" y="3" font-family="sans-serif">trek</text></g><g class="relationship" transform="translate(139.53482949519253 9.917939381034454) rotate(528.5854465625245)"><path class="outline" fill="#A5ABB6" stroke="none" d="M 25 0.5 L 41.46537501727761 0.5 L 41.46537501727761 -0.5 L 25 -0.5 Z M 60.80131251727761 0.5 L 77.26668753455522 0.5 L 77.26668753455522 3.5 L 84.26668753455522 0 L 77.26668753455522 -3.5 L 77.26668753455522 -0.5 L 60.80131251727761 -0.5 Z"/><text text-anchor="middle" pointer-events="none" font-size="8px" fill="#000000" x="51.13334376727761" y="3" transform="rotate(180 51.13334376727761 0)" font-family="sans-serif">trek</text></g><g class="relationship" transform="translate(139.53482949519253 9.917939381034454) rotate(528.5854465625245)"><path class="outline" fill="#A5ABB6" stroke="none" d="M 21.40063509461097,-12.933012701892217 L 21.90063509461097,-12.06698729810778 A 61.81380120318733 61.81380120318733 0 0 1 40.105765440215265,-19.029384355504625 L 39.9002810660342,-20.00804475215272 A 62.81380120318733 62.81380120318733 0 0 0 21.40063509461097,-12.933012701892217 Z M 61.963282467003424,-20.677612641003847 L 61.81752235385277,-19.688292677890644 A 61.81380120318733 61.81380120318733 0 0 1 80.41135042876634,-13.842670281101153 L 79.07165860289922,-11.158415112212616 L 86.89789446048411,-11.164098548892634 L 82.19760619658916,-17.421677172952535 L 80.85791437072204,-14.737422004063998 A 62.81380120318733 62.81380120318733 0 0 0 61.963282467003424,-20.677612641003847"/><text text-anchor="middle" pointer-events="none" font-size="8px" fill="#000000" x="50.917306927505514" y="-17.819790627917456" transform="rotate(180 50.917306927505514 -20.819790627917456)" font-family="sans-serif">road</text></g></g><g class="layer nodes"><g class="node" transform="translate(139.53482949519253,9.917939381034454)"><circle class="outline" cx="0" cy="0" r="25" fill="#F16667" stroke="#eb2728" stroke-width="2px"/><text text-anchor="middle" pointer-events="none" font-family="sans-serif" dy="1.5625" font-size="25" fill="#FFFFFF"/><text text-anchor="middle" pointer-events="none" x="0" y="5" font-size="10px" fill="#FFFFFF" font-family="sans-serif"> Darjeeling</text></g><g class="node" transform="translate(110.78219311949496,196.16615696772496)"><circle class="outline" cx="0" cy="0" r="25" fill="#8DCC93" stroke="#5db665" stroke-width="2px"/><text text-anchor="middle" pointer-events="none" font-family="sans-serif" dy="1.5625" font-size="25" fill="#2A2C34"/><text text-anchor="middle" pointer-events="none" x="0" y="5" font-size="10px" fill="#2A2C34" font-family="sans-serif"> Sandak…</text></g><g class="node" transform="translate(32.42933466076412,31.542508302665077)"><circle class="outline" cx="0" cy="0" r="25" fill="#F16667" stroke="#eb2728" stroke-width="2px"/><text text-anchor="middle" pointer-events="none" font-family="sans-serif" dy="1.5625" font-size="25" fill="#FFFFFF"/><text text-anchor="middle" pointer-events="none" x="0" y="5" font-size="10px" fill="#FFFFFF" font-family="sans-serif"> Rimbik</text></g><g class="node" transform="translate(21.377708671022216,137.2407246503538)"><circle class="outline" cx="0" cy="0" r="25" fill="#D9C8AE" stroke="#c0a378" stroke-width="2px"/><text text-anchor="middle" pointer-events="none" font-family="sans-serif" dy="1.5625" font-size="25" fill="#2A2C34"/><text text-anchor="middle" pointer-events="none" x="0" y="5" font-size="10px" fill="#2A2C34" font-family="sans-serif"> BhikeBh…</text></g></g></svg>