<svg xmlns="http://www.w3.org/2000/svg" width="240.44485473632812" height="253.70321655273438" viewBox="-7.914638519287109 -9.903533935546875 240.44485473632812 253.70321655273438"><title>Neo4j Graph Visualization</title><desc>Created using Neo4j (http://www.neo4j.com/)</desc><g class="layer relationships"><g class="relationship" transform="translate(123.49143675472327 130.08840201240127) rotate(411.81251909955193)"><path class="outline" fill="#A5ABB6" stroke="none" d="M 25 0.5 L 27.606882607492373 0.5 L 27.606882607492373 -0.5 L 25 -0.5 Z M 73.16938260749237 0.5 L 75.77626521498475 0.5 L 75.77626521498475 3.5 L 82.77626521498475 0 L 75.77626521498475 -3.5 L 75.77626521498475 -0.5 L 73.16938260749237 -0.5 Z"/><text text-anchor="middle" pointer-events="none" font-size="8px" fill="#000000" x="50.38813260749237" y="3" font-family="sans-serif">ACTED_IN</text></g><g class="relationship" transform="translate(123.49143675472327 130.08840201240127) rotate(315.12777249021065)"><path class="outline" fill="#A5ABB6" stroke="none" d="M 25 0.5 L 30.18892066696393 0.5 L 30.18892066696393 -0.5 L 25 -0.5 Z M 75.75142066696392 0.5 L 80.94034133392786 0.5 L 80.94034133392786 3.5 L 87.94034133392786 0 L 80.94034133392786 -3.5 L 80.94034133392786 -0.5 L 75.75142066696392 -0.5 Z"/><text text-anchor="middle" pointer-events="none" font-size="8px" fill="#000000" x="52.97017066696393" y="3" font-family="sans-serif">ACTED_IN</text></g><g class="relationship" transform="translate(123.49143675472327 130.08840201240127) rotate(258.55567608745633)"><path class="outline" fill="#A5ABB6" stroke="none" d="M 25 0.5 L 35.23500383010267 0.5 L 35.23500383010267 -0.5 L 25 -0.5 Z M 71.00844133010267 0.5 L 81.24344516020534 0.5 L 81.24344516020534 3.5 L 88.24344516020534 0 L 81.24344516020534 -3.5 L 81.24344516020534 -0.5 L 71.00844133010267 -0.5 Z"/><text text-anchor="middle" pointer-events="none" font-size="8px" fill="#000000" x="53.12172258010267" y="3" transform="rotate(180 53.12172258010267 0)" font-family="sans-serif">WROTE</text></g><g class="relationship" transform="translate(123.49143675472327 130.08840201240127) rotate(205.25849264566256)"><path class="outline" fill="#A5ABB6" stroke="none" d="M 25 0.5 L 35.22926511033292 0.5 L 35.22926511033292 -0.5 L 25 -0.5 Z M 71.00270261033292 0.5 L 81.23196772066584 0.5 L 81.23196772066584 3.5 L 88.23196772066584 0 L 81.23196772066584 -3.5 L 81.23196772066584 -0.5 L 71.00270261033292 -0.5 Z"/><text text-anchor="middle" pointer-events="none" font-size="8px" fill="#000000" x="53.11598386033292" y="3" transform="rotate(180 53.11598386033292 0)" font-family="sans-serif">WROTE</text></g><g class="relationship" transform="translate(123.49143675472327 130.08840201240127) rotate(508.6525291304547)"><path class="outline" fill="#A5ABB6" stroke="none" d="M 25 0.5 L 29.507518306681206 0.5 L 29.507518306681206 -0.5 L 25 -0.5 Z M 76.3981433066812 0.5 L 80.90566161336241 0.5 L 80.90566161336241 3.5 L 87.90566161336241 0 L 80.90566161336241 -3.5 L 80.90566161336241 -0.5 L 76.3981433066812 -0.5 Z"/><text text-anchor="middle" pointer-events="none" font-size="8px" fill="#000000" x="52.952830806681206" y="3" transform="rotate(180 52.952830806681206 0)" font-family="sans-serif">DIRECTED</text></g></g><g class="layer nodes"><g class="node" transform="translate(123.49143675472327,130.08840201240127)"><circle class="outline" cx="0" cy="0" r="25" fill="#F79767" stroke="#f36924" stroke-width="2px"/><text text-anchor="middle" pointer-events="none" font-family="sans-serif" dy="1.5625" font-size="25" fill="#FFFFFF"/><text text-anchor="middle" pointer-events="none" font-family="sans-serif" dy="1.5625" font-size="25" fill="#FFFFFF"/><text text-anchor="middle" pointer-events="none" font-family="sans-serif" dy="1.5625" font-size="25" fill="#FFFFFF"/><text text-anchor="middle" pointer-events="none" x="0" y="-5" font-size="10px" fill="#FFFFFF" font-family="sans-serif"> Captain</text><text text-anchor="middle" pointer-events="none" x="0" y="5" font-size="10px" fill="#FFFFFF" font-family="sans-serif"> America:</text><text text-anchor="middle" pointer-events="none" x="0" y="15" font-size="10px" fill="#FFFFFF" font-family="sans-serif"> The Fi…</text></g><g class="node" transform="translate(190.122676201369,214.79968386726694)"><circle class="outline" cx="0" cy="0" r="25" fill="#57C7E3" stroke="#23b3d7" stroke-width="2px"/><text text-anchor="middle" pointer-events="none" font-family="sans-serif" dy="1.5625" font-size="25" fill="#2A2C34"/><text text-anchor="middle" pointer-events="none" font-family="sans-serif" dy="1.5625" font-size="25" fill="#2A2C34"/><text text-anchor="middle" pointer-events="none" x="0" y="0" font-size="10px" fill="#2A2C34" font-family="sans-serif"> Hugo</text><text text-anchor="middle" pointer-events="none" x="0" y="10" font-size="10px" fill="#2A2C34" font-family="sans-serif"> Weaving</text></g><g class="node" transform="translate(203.53021306472885,50.40581302697094)"><circle class="outline" cx="0" cy="0" r="25" fill="#57C7E3" stroke="#23b3d7" stroke-width="2px"/><text text-anchor="middle" pointer-events="none" font-family="sans-serif" dy="1.5625" font-size="25" fill="#2A2C34"/><text text-anchor="middle" pointer-events="none" font-family="sans-serif" dy="1.5625" font-size="25" fill="#2A2C34"/><text text-anchor="middle" pointer-events="none" x="0" y="0" font-size="10px" fill="#2A2C34" font-family="sans-serif"> Chris</text><text text-anchor="middle" pointer-events="none" x="0" y="10" font-size="10px" fill="#2A2C34" font-family="sans-serif"> Evans</text></g><g class="node" transform="translate(101.02216869095943,19.096465979051732)"><circle class="outline" cx="0" cy="0" r="25" fill="#57C7E3" stroke="#23b3d7" stroke-width="2px"/><text text-anchor="middle" pointer-events="none" font-family="sans-serif" dy="1.5625" font-size="25" fill="#2A2C34"/><text text-anchor="middle" pointer-events="none" font-family="sans-serif" dy="1.5625" font-size="25" fill="#2A2C34"/><text text-anchor="middle" pointer-events="none" x="0" y="0" font-size="10px" fill="#2A2C34" font-family="sans-serif"> Stephen</text><text text-anchor="middle" pointer-events="none" x="0" y="10" font-size="10px" fill="#2A2C34" font-family="sans-serif"> McFeely</text></g><g class="node" transform="translate(21.085361474942584,81.7720045920037)"><circle class="outline" cx="0" cy="0" r="25" fill="#57C7E3" stroke="#23b3d7" stroke-width="2px"/><text text-anchor="middle" pointer-events="none" font-family="sans-serif" dy="1.5625" font-size="25" fill="#2A2C34"/><text text-anchor="middle" pointer-events="none" x="0" y="5" font-size="10px" fill="#2A2C34" font-family="sans-serif"> Christop…</text></g><g class="node" transform="translate(27.06682870489688,188.82496121353643)"><circle class="outline" cx="0" cy="0" r="25" fill="#57C7E3" stroke="#23b3d7" stroke-width="2px"/><text text-anchor="middle" pointer-events="none" font-family="sans-serif" dy="1.5625" font-size="25" fill="#2A2C34"/><text text-anchor="middle" pointer-events="none" font-family="sans-serif" dy="1.5625" font-size="25" fill="#2A2C34"/><text text-anchor="middle" pointer-events="none" x="0" y="0" font-size="10px" fill="#2A2C34" font-family="sans-serif"> Joe</text><text text-anchor="middle" pointer-events="none" x="0" y="10" font-size="10px" fill="#2A2C34" font-family="sans-serif"> Johnston</text></g></g></svg>